<svg xmlns="http://www.w3.org/2000/svg" viewBox="0 0 1024 1024" width="1024" height="1024">
  <path d="M 962.0,512.0 L 961.13,689.72 L 958.52,746.05 L 954.15,786.37 L 947.97,818.44 L 939.94,845.09 L 929.98,867.72 L 917.96,887.11 L 903.75,903.75 L 887.11,917.96 L 867.72,929.98 L 845.09,939.94 L 818.44,947.97 L 786.37,954.15 L 746.05,958.52 L 689.72,961.13 L 512.0,962.0 L 334.28,961.13 L 277.95,958.52 L 237.63,954.15 L 205.56,947.97 L 178.91,939.94 L 156.28,929.98 L 136.89,917.96 L 120.25,903.75 L 106.04,887.11 L 94.02,867.72 L 84.06,845.09 L 76.03,818.44 L 69.85,786.37 L 65.48,746.05 L 62.87,689.72 L 62.0,512.0 L 62.87,334.28 L 65.48,277.95 L 69.85,237.63 L 76.03,205.56 L 84.06,178.91 L 94.02,156.28 L 106.04,136.89 L 120.25,120.25 L 136.89,106.04 L 156.28,94.02 L 178.91,84.06 L 205.56,76.03 L 237.63,69.85 L 277.95,65.48 L 334.28,62.87 L 512.0,62.0 L 689.72,62.87 L 746.05,65.48 L 786.37,69.85 L 818.44,76.03 L 845.09,84.06 L 867.72,94.02 L 887.11,106.04 L 903.75,120.25 L 917.96,136.89 L 929.98,156.28 L 939.94,178.91 L 947.97,205.56 L 954.15,237.63 L 958.52,277.95 L 961.13,334.28 Z" fill="#000000"/>
  <text x="512" y="600" font-family="-apple-system, SF Pro Display, Helvetica Neue, Arial, sans-serif" font-weight="800" font-size="280" fill="#FFFFFF" text-anchor="middle">Hooj</text>
</svg>
